<svg height="512pt" viewBox="0 0 512 512" width="512pt" xmlns="http://www.w3.org/2000/svg"><path d="m460.070312 7.5h-408.140624c-24.539063 0-44.429688 19.890625-44.429688 44.429688v90.070312l248.5 27.667969 248.5-27.667969v-90.070312c0-24.539063-19.890625-44.429688-44.429688-44.429688zm0 0" fill="#bebfc0"/><path d="m504.5 142v318.070312c0 24.539063-19.890625 44.429688-44.429688 44.429688h-408.140624c-24.539063 0-44.429688-19.890625-44.429688-44.429688v-318.070312zm0 0" fill="#d6d8d9"/><path d="m57.5 142h397v312.5h-397zm0 0" fill="#f8eed3"/><path d="m100.664062 74.75c0 11.230469-9.101562 20.332031-20.332031 20.332031s-20.332031-9.101562-20.332031-20.332031 9.101562-20.332031 20.332031-20.332031 20.332031 9.101562 20.332031 20.332031zm0 0" fill="#cf5564"/><path d="m170.019531 74.75c0 11.230469-9.101562 20.332031-20.332031 20.332031s-20.332031-9.101562-20.332031-20.332031 9.101562-20.332031 20.332031-20.332031 20.332031 9.101562 20.332031 20.332031zm0 0" fill="#99d1c2"/><path d="m239.375 74.75c0 11.230469-9.101562 20.332031-20.332031 20.332031s-20.332031-9.101562-20.332031-20.332031 9.101562-20.332031 20.332031-20.332031 20.332031 9.101562 20.332031 20.332031zm0 0" fill="#f1cf79"/><path d="m162.75 396.050781 47.828125-16.292969-22.683594-60.386718-60.378906-22.675782-16.292969 47.828126 12.746094 38.785156zm0 0" fill="#f1cf79"/><path d="m187.894531 319.371094-14.535156-5.460938 17.21875 45.847656-47.828125 16.292969-23.730469-7.796875 4.949219 15.054688 38.78125 12.742187 47.828125-16.292969zm0 0" fill="#d4b25f"/><path d="m327.753906 96.457031 83.058594 83.058594-200.238281 200.238281-83.054688-83.058594zm0 0" fill="#ee8688"/><path d="m327.753906 96.460938 63.058594 63.058593-200.238281 200.238281 20 20 200.238281-200.238281zm0 0" fill="#cf5564"/><path d="m162.75 396.050781-21.523438 7.324219c-5.300781 1.8125-10.894531 2.03125-16.148437.808594s-10.167969-3.890625-14.136719-7.859375c-7.925781-7.925781-10.65625-19.664063-7.042968-30.277344l7.328124-21.523437zm0 0" fill="#4e555c"/><path d="m142.75 376.050781-21.523438 7.324219c-5.300781 1.8125-10.894531 2.03125-16.148437.808594-.527344-.125-1.046875-.273438-1.5625-.421875 1.355469 4.660156 3.859375 9 7.425781 12.5625 3.96875 3.96875 8.882813 6.636719 14.136719 7.859375s10.847656 1.003906 16.148437-.808594l21.523438-7.324219zm0 0" fill="#43494f"/><path d="m461.214844 88.28125-42.222656-42.222656c-11.277344-11.277344-29.558594-11.277344-40.835938 0l-50.402344 50.402344 83.058594 83.058593 50.402344-50.402343c11.277344-11.277344 11.277344-29.558594 0-40.835938zm0 0" fill="#f1cf79"/><path d="m461.214844 88.28125-20-20c11.277344 11.277344 11.277344 29.558594 0 40.835938l-50.402344 50.402343 20 20 50.402344-50.402343c11.277344-11.277344 11.277344-29.558594 0-40.835938zm0 0" fill="#d4b25f"/><path d="m429.449219 160.882812-83.058594-83.0625c-6.226563-6.226562-16.324219-6.226562-22.550781 0l-14.722656 14.722657c-6.226563 6.226562-6.226563 16.324219 0 22.554687l83.058593 83.058594c6.226563 6.226562 16.328125 6.226562 22.554688 0l14.71875-14.722656c6.230469-6.226563 6.230469-16.324219 0-22.550782zm0 0" fill="#7f9cdc"/><path d="m409.449219 140.882812c6.230469 6.226563 6.230469 16.324219 0 22.550782l-14.71875 14.722656c-6.226563 6.226562-16.328125 6.226562-22.554688 0l20 20c6.226563 6.226562 16.328125 6.226562 22.554688 0l14.71875-14.722656c6.230469-6.226563 6.230469-16.324219 0-22.550782zm0 0" fill="#6686cc"/><path d="m80.332031 46.917969c-15.347656 0-27.832031 12.484375-27.832031 27.832031s12.484375 27.832031 27.832031 27.832031c15.347657 0 27.832031-12.484375 27.832031-27.832031.003907-15.347656-12.484374-27.832031-27.832031-27.832031zm0 40.664062c-7.074219 0-12.832031-5.757812-12.832031-12.832031s5.757812-12.832031 12.832031-12.832031c7.078125 0 12.832031 5.757812 12.832031 12.832031s-5.753906 12.832031-12.832031 12.832031zm0 0"/><path d="m177.519531 74.75c0-15.347656-12.484375-27.832031-27.832031-27.832031s-27.832031 12.484375-27.832031 27.832031 12.484375 27.832031 27.832031 27.832031 27.832031-12.484375 27.832031-27.832031zm-40.664062 0c0-7.074219 5.753906-12.832031 12.832031-12.832031 7.074219 0 12.832031 5.757812 12.832031 12.832031s-5.757812 12.832031-12.832031 12.832031c-7.078125 0-12.832031-5.757812-12.832031-12.832031zm0 0"/><path d="m246.875 74.75c0-15.347656-12.484375-27.832031-27.832031-27.832031-15.347657 0-27.832031 12.484375-27.832031 27.832031s12.484374 27.832031 27.832031 27.832031c15.347656 0 27.832031-12.484375 27.832031-27.832031zm-40.664062 0c0-7.074219 5.753906-12.832031 12.832031-12.832031 7.074219 0 12.832031 5.757812 12.832031 12.832031s-5.757812 12.832031-12.832031 12.832031c-7.078125 0-12.832031-5.757812-12.832031-12.832031zm0 0"/><path d="m212.535156 282.816406s7.773438 7.769532 7.773438 7.769532c2.84375 2.84375 7.691406 2.917968 10.605468 0 2.929688-2.929688 2.929688-7.675782 0-10.605469l-7.769531-7.773438c-2.929687-2.929687-7.679687-2.925781-10.609375 0-2.925781 2.929688-2.925781 7.679688 0 10.609375zm0 0"/><path d="m306.210938 204.6875c2.839843 2.839844 7.6875 2.917969 10.605468 0 2.929688-2.929688 2.929688-7.675781 0-10.605469l-7.773437-7.773437c-2.929688-2.929688-7.675781-2.929688-10.605469 0-2.929688 2.929687-2.929688 7.675781 0 10.605468 0 0 7.773438 7.773438 7.773438 7.773438zm0 0"/><path d="m256.917969 259.878906c7.820312.523438 15.578125-2.570312 21.097656-8.09375 5.664063-5.660156 8.613281-13.351562 8.089844-21.09375-.277344-4.132812-3.855469-7.265625-7.984375-6.980468-4.132813.277343-7.257813 3.851562-6.980469 7.984374.230469 3.425782-1.128906 6.882813-3.730469 9.484376-2.601562 2.601562-6.058594 3.960937-9.484375 3.730468-4.144531-.285156-7.707031 2.847656-7.988281 6.980469-.277344 4.132813 2.847656 7.710937 6.980469 7.988281zm0 0"/><path d="m51.929688 512h408.140624c28.632813 0 51.929688-23.296875 51.929688-51.929688v-408.140624c0-28.632813-23.296875-51.929688-51.929688-51.929688h-329.96875c-4.140624 0-7.5 3.359375-7.5 7.5s3.359376 7.5 7.5 7.5h329.96875c20.363282 0 36.929688 16.566406 36.929688 36.929688v82.570312h-30.5625l.082031-.078125c14.179688-14.183594 14.179688-37.261719 0-51.441406 0 0-42.21875-42.21875-42.222656-42.226563-14.007813-14.003906-37.445313-13.996094-51.441406 0l-27.328125 27.328125c-3.195313-1.585937-6.738282-2.429687-10.410156-2.429687-6.167969 0-12.21875 2.503906-16.582032 6.867187 0 0-14.714844 14.714844-14.71875 14.71875-7.015625 7.019531-8.847656 18.105469-4.4375 26.992188l-20.269531 20.269531h-264.109375v-82.570312c0-20.363282 16.566406-36.929688 36.929688-36.929688h48.171874c4.140626 0 7.5-3.359375 7.5-7.5s-3.359374-7.5-7.5-7.5h-48.171874c-28.632813 0-51.929688 23.296875-51.929688 51.929688v408.140624c0 28.632813 23.296875 51.929688 51.929688 51.929688zm331.53125-460.636719c8.109374-8.113281 22.128906-8.097656 30.226562 0 0 0 42.183594 42.183594 42.222656 42.222657 8.132813 8.132812 8.121094 22.109374 0 30.226562l-26.457031 26.460938-72.453125-72.453126s26.433594-26.433593 26.460938-26.457031zm-54.316407 31.761719c3.253907-3.257812 8.691407-3.253906 11.945313 0l83.058594 83.058594c3.292968 3.292968 3.292968 8.652344 0 11.949218 0 0-14.71875 14.71875-14.71875 14.71875-3.195313 3.191407-8.730469 3.21875-11.949219 0 0 0-83.058594-83.058593-83.058594-83.058593-3.195313-3.195313-3.199219-8.746094 0-11.945313 0 0 14.707031-14.707031 14.722656-14.722656zm-205.71875 312.664062c-10.523437-4.3125-16.085937-16.546874-12.425781-27.324218l3.445312-10.117188 34.480469 34.480469c-8.441406 2.875-16.636719 6.59375-25.5 2.960937zm185.691407-270.085937 72.453124 72.453125-170.992187 170.992188-72.453125-72.453126zm-112.363282 250.839844-32.003906 10.898437-44.917969-44.917968 10.898438-32.003907zm-181.753906-227.042969h35v305c0 4.140625 3.359375 7.5 7.5 7.5h310.601562c4.140626 0 7.5-3.359375 7.5-7.5s-3.359374-7.5-7.5-7.5h-303.101562v-297.5h199.109375s-141.710937 141.707031-141.757813 141.757812c-1.320312 1.335938-1.933593 3.015626-2.53125 4.769532 0 0-22.730468 66.75-22.742187 66.785156-4.539063 13.328125-1.488281 28.765625 8.5625 38.816406 9.804687 9.808594 24.878906 13.328125 38.003906 8.847656 0 0 69.347657-23.617187 69.355469-23.617187 1.1875-.40625 2.132812-1.105469 3.035156-1.957031l177.003906-177.003906c.058594.03125.117188.054687.175782.082031 8.914062 4.308593 19.824218 2.472656 26.816406-4.519531 0 0 14.722656-14.722657 14.722656-14.722657 7.007813-7.007812 8.824219-18.097656 4.433594-26.988281l7.8125-7.8125v293.0625h-48.898438c-4.140624 0-7.5 3.359375-7.5 7.5s3.359376 7.5 7.5 7.5h56.398438c4.140625 0 7.5-3.359375 7.5-7.5v-305h35v310.570312c0 20.363282-16.566406 36.929688-36.929688 36.929688h-408.140624c-20.363282 0-36.929688-16.566406-36.929688-36.929688zm0 0"/></svg>